<svg width="80" height="80" viewBox="0 0 80 80" fill="none" xmlns="http://www.w3.org/2000/svg">
<path d="M28.6092 79.4151C28.6092 79.4151 28.8923 64.0676 26.962 58.3488C25.0059 52.6301 22.8439 43.4269 8.40482 33.8247C3.3859 30.4467 1.71294 30.7658 1.19818 31.085C0.657681 31.4042 -0.114459 32.7874 0.0142316 38.9583C0.16866 45.1558 -0.2689 62.1259 6.75759 69.6268C13.7841 77.1276 19.2406 78.9097 28.5835 79.4151H28.6092Z" fill="#00A0CA"/>
<path d="M40.0045 38.9317C51.3035 20.2327 68.3164 13.6628 70.1695 13.0776C71.7653 12.5722 72.5889 12.0402 72.7176 10.6837C72.872 9.38033 70.7872 6.53426 64.7903 3.58179C56.6056 -0.434633 39.9788 0.0175569 39.9788 0.0175569C39.9788 0.0175569 23.3777 -0.461232 15.193 3.58179C9.19607 6.53426 7.1113 9.35373 7.26573 10.6837C7.42016 12.0668 8.1923 12.5988 9.81379 13.0776C11.6669 13.6628 28.7055 20.2593 39.9788 38.9317H40.0045Z" fill="#00A0CA"/>
<path d="M40.0281 80.0001C42.9879 80.0001 45.7419 79.8671 48.2385 79.6809C48.2385 79.6809 48.5474 65.8761 47.7237 60.7425C46.8229 55.0504 44.9183 46.0067 40.0538 39.0645C35.215 46.0067 33.3104 55.0504 32.3839 60.7425C31.586 65.8761 31.8691 79.6809 31.8691 79.6809C34.3399 79.8671 37.0939 80.0001 40.0281 80.0001Z" fill="#00A0CA"/>
<path d="M51.4084 79.4151C51.4084 79.4151 51.0996 64.0676 53.0557 58.3488C55.0118 52.6301 57.1738 43.4269 71.6128 33.8247C76.6317 30.4467 78.3047 30.7658 78.8194 31.085C79.3342 31.4042 80.1321 32.7874 79.9777 38.9583C79.8232 45.1558 80.2865 62.1259 73.2343 69.6268C66.2078 77.1276 60.7513 78.9097 51.4084 79.4151Z" fill="#00A0CA"/>
<path d="M5.04245 17.653C4.01293 17.4402 3.34375 16.3762 3.34375 15.2591C3.34375 13.8759 4.42473 12.7588 5.73737 12.7588C5.94327 12.7588 6.38083 12.812 6.68969 12.9716C6.68969 12.9716 17.5254 18.052 24.3717 27.3616L24.1916 27.6542C15.0546 20.2331 5.04245 17.653 5.04245 17.653Z" fill="#00A0CA"/>
<path d="M2.59351 23.4257C1.58972 23.1597 0.817585 22.2287 0.766109 21.085C0.740371 19.7018 1.74414 18.5049 3.08252 18.5049C3.39138 18.5049 3.82894 18.5847 4.16353 18.7443C4.16353 18.7443 15.0765 23.3193 21.9228 31.9373L21.7169 32.1767C12.1681 25.1812 2.59351 23.4257 2.59351 23.4257Z" fill="#00A0CA"/>
<path d="M2.12708 29.6762C1.14904 29.4102 0.402633 28.5059 0.376895 27.4419C0.325419 26.112 1.32919 24.915 2.61609 24.915C2.69331 24.915 3.13086 24.915 3.54266 25.0746C3.54266 25.0746 14.0695 29.5166 19.5517 36.3791L19.3716 36.6717C10.2346 30.6338 2.12708 29.6762 2.12708 29.6762Z" fill="#00A0CA"/>
<path d="M75.0113 17.653C76.0408 17.4402 76.7357 16.3762 76.7357 15.2591C76.7357 13.8759 75.629 12.7588 74.2906 12.7588C74.0847 12.7588 73.6729 12.812 73.3383 12.9716C73.3383 12.9716 62.4768 18.052 55.6562 27.3616L55.8364 27.6542C64.9734 20.2331 74.9855 17.653 74.9855 17.653H75.0113Z" fill="#00A0CA"/>
<path d="M77.4722 23.4257C78.476 23.1597 79.2481 22.2287 79.2739 21.085C79.3253 19.7018 78.2701 18.5049 76.9574 18.5049C76.6486 18.5049 76.211 18.5847 75.8764 18.7443C75.8764 18.7443 64.9635 23.3193 58.1172 31.9373L58.3231 32.1767C67.8719 25.1812 77.4722 23.4257 77.4722 23.4257Z" fill="#00A0CA"/>
<path d="M77.9113 29.6762C78.8894 29.4102 79.6358 28.5059 79.6615 27.4419C79.7387 26.112 78.735 24.915 77.448 24.915C77.3451 24.915 76.9333 24.915 76.4957 25.0746C76.4957 25.0746 65.9689 29.5166 60.4609 36.3791L60.6411 36.6717C69.7524 30.6338 77.8856 29.6762 77.8856 29.6762H77.9113Z" fill="#00A0CA"/>
</svg>
